# xmcd CD database file
#
# Track frame offsets:
#	150
#	14960
#	29417
#	38810
#	51582
#	66190
#	78166
#	103845
#	118453
#	132107
#	140743
#	159430
#	171956
#	184805
#	200885
#	212260
#	226553
#	238865
#	252968
#	269729
#	284755
#	297719
#
# Disc length: 4193 seconds
#
# Revision: 0
# Processed by: cddbd v1.5.2PL0 Copyright (c) Steve Scherf et al.
# Submitted via: CDex 1.51
#
DISCID=66105f16
DTITLE=Bended Band - Way Do You Drink Your Water ?
DYEAR=2005
DGENRE=Blues
TTITLE0=Boogie Of Empty Bottles
TTITLE1=Nothing
TTITLE2=Another Homeless Dog
TTITLE3=I'm Only Sleeping (by John Lennon)
TTITLE4=Absolute Blues !
TTITLE5=The Windings Of The River
TTITLE6=My Wife's Like A Handsaw
TTITLE7=Laziness
TTITLE8=Homeless Child (by Ben Harper)
TTITLE9=Nobody Does It Better
TTITLE10=Chicago (by Robert Johnson)
TTITLE11=If Yoy Wanna Be With Me
TTITLE12=Mammy Two - shoes
TTITLE13=The Windings Of The River (alternative version)
TTITLE14=The Bottled Thing
TTITLE15=Long Ago
TTITLE16=Light Shadow
TTITLE17=That's May Be The Blues
TTITLE18=I'm Sorry
TTITLE19=Highway Star (by Ritchie Blackmore. Ian Gillan. Roger Glower. Jon Lord and Ian Paice)
TTITLE20=Weak Brain. Narrow Mind (by Willie Dixon)
TTITLE21=Bad Bad Whiskey (by Thomas Davis)
EXTD=YEAR: 2005
EXTT0=
EXTT1=
EXTT2=
EXTT3=
EXTT4=
EXTT5=
EXTT6=
EXTT7=
EXTT8=
EXTT9=
EXTT10=
EXTT11=
EXTT12=
EXTT13=
EXTT14=
EXTT15=
EXTT16=
EXTT17=
EXTT18=
EXTT19=
EXTT20=
EXTT21=
PLAYORDER=
